<svg width="18" height="18" viewBox="0 0 18 18" fill="none" xmlns="http://www.w3.org/2000/svg">
<path fill-rule="evenodd" clip-rule="evenodd" d="M15.75 2.8125C15.75 2.66332 15.6907 2.52024 15.5852 2.41475C15.4797 2.30926 15.3367 2.25 15.1875 2.25H8.43748C8.28829 2.25 8.14522 2.30926 8.03973 2.41475C7.93424 2.52024 7.87498 2.66332 7.87498 2.8125C7.87498 2.96168 7.93424 3.10476 8.03973 3.21025C8.14522 3.31574 8.28829 3.375 8.43748 3.375H13.8296L2.41423 14.7892C2.36193 14.8415 2.32044 14.9036 2.29214 14.972C2.26384 15.0403 2.24927 15.1135 2.24927 15.1875C2.24927 15.2615 2.26384 15.3347 2.29214 15.403C2.32044 15.4714 2.36193 15.5335 2.41423 15.5858C2.46653 15.638 2.52861 15.6795 2.59695 15.7078C2.66528 15.7361 2.73852 15.7507 2.81248 15.7507C2.88644 15.7507 2.95968 15.7361 3.02801 15.7078C3.09634 15.6795 3.15843 15.638 3.21073 15.5858L14.625 4.17037V9.5625C14.625 9.71168 14.6842 9.85476 14.7897 9.96025C14.8952 10.0657 15.0383 10.125 15.1875 10.125C15.3367 10.125 15.4797 10.0657 15.5852 9.96025C15.6907 9.85476 15.75 9.71168 15.75 9.5625V2.8125Z" fill="#B7926A"/>
</svg>
